<svg version="1.1" xmlns="http://www.w3.org/2000/svg" viewBox="0 0 2517.805567800345 826.0991488928837" width="5035.61113560069" height="1652.1982977857674">
  <!-- svg-source:excalidraw -->
  
  <defs>
    <style class="style-fonts">
      @font-face {
        font-family: "Virgil";
        src: url("https://excalidraw.com/Virgil.woff2");
      }
      @font-face {
        font-family: "Cascadia";
        src: url("https://excalidraw.com/Cascadia.woff2");
      }
    </style>
    
  </defs>
  <rect x="0" y="0" width="2517.805567800345" height="826.0991488928837" fill="#ffffff"></rect><g stroke-linecap="round" transform="translate(745.7700694550389 452.46151837858434) rotate(0 248.314453125 55.17773437500003)"><path d="M27.59 0 M27.59 0 C192.46 0.01, 357.58 -0.26, 469.04 0 M27.59 0 C194.1 0.45, 360.25 0.02, 469.04 0 M469.04 0 C488.63 -0.16, 497.01 9.02, 496.63 27.59 M469.04 0 C488.7 1.91, 498.4 11.3, 496.63 27.59 M496.63 27.59 C496.08 42.69, 497.96 55.94, 496.63 82.77 M496.63 27.59 C497.07 46, 497.29 63.29, 496.63 82.77 M496.63 82.77 C494.75 102.98, 486.86 110.73, 469.04 110.36 M496.63 82.77 C497.63 102.39, 486.42 111.97, 469.04 110.36 M469.04 110.36 C352.25 113.07, 237.31 111.76, 27.59 110.36 M469.04 110.36 C350.87 111.42, 232.3 110.82, 27.59 110.36 M27.59 110.36 C8.43 110.05, 0.15 100.78, 0 82.77 M27.59 110.36 C11.46 108.42, -1.34 100.37, 0 82.77 M0 82.77 C0.97 71.14, 1.96 58.91, 0 27.59 M0 82.77 C0.05 65.44, 1.21 49.55, 0 27.59 M0 27.59 C-1.43 9.39, 10.51 -0.92, 27.59 0 M0 27.59 C1.02 10.01, 9.06 -0.43, 27.59 0" stroke="#000000" stroke-width="1" fill="none"></path></g><g transform="translate(883.4985774506443 490.13925275358434) rotate(0 110.58594512939453 17.50000000000003)"><text x="110.58594512939453" y="0" font-family="Virgil, Segoe UI Emoji" font-size="28px" fill="#000000" text-anchor="middle" style="white-space: pre;" direction="ltr" dominant-baseline="text-before-edge">signup-sequencer</text></g><g stroke-linecap="round" transform="translate(1483.3932386151705 437.54840459801284) rotate(0 212.7374453223016 57.256790207181865)"><path d="M28.63 0 M28.63 0 C106.21 1.88, 185.57 0.1, 396.85 0 M28.63 0 C142.92 1.27, 256.63 0.93, 396.85 0 M396.85 0 C415.27 -1.51, 427.14 10.59, 425.47 28.63 M396.85 0 C417.9 1.31, 427.43 9.21, 425.47 28.63 M425.47 28.63 C427.43 42.69, 424.95 54.21, 425.47 85.89 M425.47 28.63 C424.85 51.04, 426.04 72.85, 425.47 85.89 M425.47 85.89 C425.7 103.19, 415.38 113.05, 396.85 114.51 M425.47 85.89 C425.85 105.92, 416.6 112.28, 396.85 114.51 M396.85 114.51 C263.23 112.1, 128.44 112.05, 28.63 114.51 M396.85 114.51 C269.04 113.25, 141.29 112.85, 28.63 114.51 M28.63 114.51 C8.23 114.97, -1.93 105.02, 0 85.89 M28.63 114.51 C9.8 113.82, 1.52 105.54, 0 85.89 M0 85.89 C-0.44 63.27, -0.18 40.26, 0 28.63 M0 85.89 C-0.04 67.73, -0.66 48.41, 0 28.63 M0 28.63 C1.34 10.37, 11.43 -1, 28.63 0 M0 28.63 C0.53 8.45, 8.08 1.16, 28.63 0" stroke="#000000" stroke-width="1" fill="none"></path></g><g transform="translate(1594.9247208027064 477.3051948051947) rotate(0 101.20596313476562 17.5)"><text x="101.20596313476562" y="0" font-family="Virgil, Segoe UI Emoji" font-size="28px" fill="#000000" text-anchor="middle" style="white-space: pre;" direction="ltr" dominant-baseline="text-before-edge">WorldIDRouter</text></g><g stroke-linecap="round" transform="translate(745.1189259844169 178.76843782848994) rotate(0 248.21619737875204 53.87406327354114)"><path d="M26.94 0 M26.94 0 C171.47 1.57, 315.18 0.68, 469.5 0 M26.94 0 C120.69 -1.35, 215.11 -1.59, 469.5 0 M469.5 0 C487.86 -1.64, 494.81 7.79, 496.43 26.94 M469.5 0 C489.35 1.47, 495.92 10.26, 496.43 26.94 M496.43 26.94 C495.34 44.79, 495.25 62.04, 496.43 80.81 M496.43 26.94 C496.83 38.04, 497.69 49.71, 496.43 80.81 M496.43 80.81 C495.73 99.48, 488.27 107.37, 469.5 107.75 M496.43 80.81 C497.14 99.29, 485.72 107.28, 469.5 107.75 M469.5 107.75 C366.98 107.95, 262.72 108.62, 26.94 107.75 M469.5 107.75 C317.39 109.59, 165.15 109.47, 26.94 107.75 M26.94 107.75 C9.66 108.83, 1.36 99.9, 0 80.81 M26.94 107.75 C8.36 107.01, 0.3 96.66, 0 80.81 M0 80.81 C1.32 67.49, 0.22 56.96, 0 26.94 M0 80.81 C0.07 69.38, -0.27 57.18, 0 26.94 M0 26.94 C1.98 9.81, 7.13 -0.52, 26.94 0 M0 26.94 C-2.24 8.86, 8.31 -0.56, 26.94 0" stroke="#343a40" stroke-width="1" fill="none"></path></g><g transform="translate(894.9851630360205 215.14250110203108) rotate(0 98.34996032714844 17.5)"><text x="98.34996032714844" y="0" font-family="Virgil, Segoe UI Emoji" font-size="28px" fill="#343a40" text-anchor="middle" style="white-space: pre;" direction="ltr" dominant-baseline="text-before-edge">semaphore-mtb</text></g><g stroke-linecap="round"><g transform="translate(828.5720894395006 450.75378929164793) rotate(0 -1.014825407675886 -82.25289733630558)"><path d="M-0.95 -0.36 C-1.28 -27.92, -2.68 -136.94, -2.78 -164.14 M0.75 -1.6 C0.84 -28.53, -0.14 -136.3, -0.65 -163.12" stroke="#343a40" stroke-width="1" fill="none"></path></g><g transform="translate(828.5720894395006 450.75378929164793) rotate(0 -1.014825407675886 -82.25289733630558)"><path d="M9.37 -136.9 C5.61 -141.51, 4.03 -147.45, 1.17 -163.79 M10.87 -135.65 C7.27 -144.37, 2.94 -152.96, 0.01 -164.01" stroke="#343a40" stroke-width="1" fill="none"></path></g><g transform="translate(828.5720894395006 450.75378929164793) rotate(0 -1.014825407675886 -82.25289733630558)"><path d="M-11.15 -136.63 C-10.15 -141.14, -6.95 -147.15, 1.17 -163.79 M-9.65 -135.39 C-6.94 -144.37, -4.95 -153.05, 0.01 -164.01" stroke="#343a40" stroke-width="1" fill="none"></path></g></g><mask></mask><g transform="translate(563.7146926180866 334.24366755959426) rotate(0 126.73988342285156 25)"><text x="126.73988342285156" y="0" font-family="Virgil, Segoe UI Emoji" font-size="20px" fill="#343a40" text-anchor="middle" style="white-space: pre;" direction="ltr" dominant-baseline="text-before-edge">identity commitment batch</text><text x="126.73988342285156" y="25" font-family="Virgil, Segoe UI Emoji" font-size="20px" fill="#343a40" text-anchor="middle" style="white-space: pre;" direction="ltr" dominant-baseline="text-before-edge">(size 10, 100 or 1000) </text></g><g stroke-linecap="round"><g transform="translate(1103.6977382930381 286.33752670306166) rotate(0 -0.6048951991300555 80.92062181405339)"><path d="M0.1 -1.17 C0.15 25.71, -0.08 134.36, -0.15 161.65 M-1.31 0.83 C-1.33 27.86, -0.86 136.4, -0.78 163.01" stroke="#343a40" stroke-width="1" fill="none"></path></g><g transform="translate(1103.6977382930381 286.33752670306166) rotate(0 -0.6048951991300555 80.92062181405339)"><path d="M-13.1 135.86 C-8.89 143.01, -4.64 150.49, -1.89 163.05 M-11.14 134.96 C-8.35 141.01, -5.58 148.12, -0.18 162.07" stroke="#343a40" stroke-width="1" fill="none"></path></g><g transform="translate(1103.6977382930381 286.33752670306166) rotate(0 -0.6048951991300555 80.92062181405339)"><path d="M7.42 135.78 C6.24 142.97, 5.09 150.47, -1.89 163.05 M9.38 134.89 C7.48 140.9, 5.55 148.03, -0.18 162.07" stroke="#343a40" stroke-width="1" fill="none"></path></g></g><mask></mask><g transform="translate(875.4080937868328 355.45691906005203) rotate(0 93.8357925415039 16.30048150283136)"><text x="93.8357925415039" y="0" font-family="Virgil, Segoe UI Emoji" font-size="26.08077040453017px" fill="#2f9e44" text-anchor="middle" style="white-space: pre;" direction="ltr" dominant-baseline="text-before-edge">/insertionProof</text></g><g transform="translate(1115.4514671929232 349.47814587501256) rotate(0 72.46993255615234 25)"><text x="72.46993255615234" y="0" font-family="Virgil, Segoe UI Emoji" font-size="20px" fill="#343a40" text-anchor="middle" style="white-space: pre;" direction="ltr" dominant-baseline="text-before-edge">batch insertion</text><text x="72.46993255615234" y="25" font-family="Virgil, Segoe UI Emoji" font-size="20px" fill="#343a40" text-anchor="middle" style="white-space: pre;" direction="ltr" dominant-baseline="text-before-edge">proof</text></g><g stroke-linecap="round"><g transform="translate(1248.1811400088159 485.1683853712333) rotate(0 113.06809065825911 -0.7772203542141938)"><path d="M-0.86 0.56 C36.92 0.35, 189.31 -1.56, 227 -2.11 M0.89 -0.2 C38.54 -0.17, 188.56 -0.57, 226.33 -0.88" stroke="#343a40" stroke-width="1" fill="none"></path></g><g transform="translate(1248.1811400088159 485.1683853712333) rotate(0 113.06809065825911 -0.7772203542141938)"><path d="M199.12 10.42 C206.44 4.36, 214.56 4.81, 226.44 -0.18 M198.63 10 C209 5.24, 219.5 1.09, 225.62 0" stroke="#343a40" stroke-width="1" fill="none"></path></g><g transform="translate(1248.1811400088159 485.1683853712333) rotate(0 113.06809065825911 -0.7772203542141938)"><path d="M199.02 -10.1 C206.22 -9.49, 214.37 -2.38, 226.44 -0.18 M198.53 -10.52 C208.77 -7.42, 219.3 -3.72, 225.62 0" stroke="#343a40" stroke-width="1" fill="none"></path></g></g><mask></mask><g transform="translate(694.4627588812838 10) rotate(0 302.39990234375 33.60033569563594)"><text x="302.39990234375" y="0" font-family="Virgil, Segoe UI Emoji" font-size="53.760537113017506px" fill="#343a40" text-anchor="middle" style="white-space: pre;" direction="ltr" dominant-baseline="text-before-edge">World ID creation flow</text></g><g stroke-linecap="round"><g transform="translate(689.6758333050753 76.63558373741148) rotate(0 306.3660099691432 0)"><path d="M0 0 C102.12 0, 510.61 0, 612.73 0 M0 0 C102.12 0, 510.61 0, 612.73 0" stroke="#343a40" stroke-width="4" fill="none"></path></g></g><mask></mask><g stroke-linecap="round" transform="translate(10 456.7000101725949) rotate(0 249.85521006408737 53.52683869655144)"><path d="M26.76 0 M26.76 0 C132.47 1.24, 240.36 2.32, 472.95 0 M26.76 0 C123.58 -1.46, 220.22 -1.38, 472.95 0 M472.95 0 C489.85 -1.43, 498.51 9.18, 499.71 26.76 M472.95 0 C489.58 -0.5, 497.54 11.18, 499.71 26.76 M499.71 26.76 C500.56 48.12, 500.23 71.47, 499.71 80.29 M499.71 26.76 C499.9 42.32, 499.23 55.88, 499.71 80.29 M499.71 80.29 C501.41 97.24, 491.82 106.38, 472.95 107.05 M499.71 80.29 C500.21 99.11, 490.26 107.79, 472.95 107.05 M472.95 107.05 C337.35 106.06, 202.99 105.57, 26.76 107.05 M472.95 107.05 C342.78 108.67, 212.58 108.32, 26.76 107.05 M26.76 107.05 C10 108.49, -0.07 98.82, 0 80.29 M26.76 107.05 C7.6 104.89, -0.57 99.46, 0 80.29 M0 80.29 C-1.7 61.31, -2.27 44.52, 0 26.76 M0 80.29 C0.3 67.96, 0.76 53.82, 0 26.76 M0 26.76 C0.3 10.84, 10.3 -1.54, 26.76 0 M0 26.76 C2.15 9.15, 7.16 0.03, 26.76 0" stroke="#343a40" stroke-width="1" fill="none"></path></g><g transform="translate(180.7552421075444 492.72684886914635) rotate(0 79.09996795654297 17.5)"><text x="79.09996795654297" y="0" font-family="Virgil, Segoe UI Emoji" font-size="28px" fill="#343a40" text-anchor="middle" style="white-space: pre;" direction="ltr" dominant-baseline="text-before-edge">orb-backend</text></g><g stroke-linecap="round"><g transform="translate(515.8953579058017 512.4019108170564) rotate(0 112.62092827107703 0.14492485424392498)"><path d="M-0.08 -1.07 C37.81 -1.1, 189.12 -0.33, 226.82 -0.2 M-1.58 0.99 C36.28 1.16, 188.51 1.36, 226.36 1.36" stroke="#343a40" stroke-width="1" fill="none"></path></g><g transform="translate(515.8953579058017 512.4019108170564) rotate(0 112.62092827107703 0.14492485424392498)"><path d="M196.38 13.13 C205.48 9.36, 212.55 5.09, 225.81 -0.59 M197.53 11.51 C204.74 9.52, 212.75 5.73, 227.21 1.93" stroke="#343a40" stroke-width="1" fill="none"></path></g><g transform="translate(515.8953579058017 512.4019108170564) rotate(0 112.62092827107703 0.14492485424392498)"><path d="M196.4 -7.39 C205.49 -5.89, 212.56 -4.89, 225.81 -0.59 M197.55 -9.02 C204.73 -6.03, 212.74 -4.84, 227.21 1.93" stroke="#343a40" stroke-width="1" fill="none"></path></g></g><mask></mask><g transform="translate(527.7278452157626 574.4037163880503) rotate(0 105.15164184570312 18.21835475229733)"><text x="105.15164184570312" y="0" font-family="Virgil, Segoe UI Emoji" font-size="29.14936760367575px" fill="#2f9e44" text-anchor="middle" style="white-space: pre;" direction="ltr" dominant-baseline="text-before-edge">/insertIdentity</text></g><g transform="translate(522.2544244677821 429.3126716625408) rotate(0 101.90989685058594 37.5)"><text x="101.90989685058594" y="0" font-family="Virgil, Segoe UI Emoji" font-size="20px" fill="#1e1e1e" text-anchor="middle" style="white-space: pre;" direction="ltr" dominant-baseline="text-before-edge">orb-authenticated</text><text x="101.90989685058594" y="25" font-family="Virgil, Segoe UI Emoji" font-size="20px" fill="#1e1e1e" text-anchor="middle" style="white-space: pre;" direction="ltr" dominant-baseline="text-before-edge"> Semaphore pub key</text><text x="101.90989685058594" y="50" font-family="Virgil, Segoe UI Emoji" font-size="20px" fill="#1e1e1e" text-anchor="middle" style="white-space: pre;" direction="ltr" dominant-baseline="text-before-edge">(identity commitment)</text></g><g transform="translate(1256.1455334162833 411.29497134719037) rotate(0 103.87989807128912 12.5)"><text x="103.87989807128906" y="0" font-family="Virgil, Segoe UI Emoji" font-size="20px" fill="#f08c00" text-anchor="middle" style="white-space: pre;" direction="ltr" dominant-baseline="text-before-edge">( routeFor(groupId) )</text></g><g transform="translate(271.9121496386763 713.1351937879349) rotate(0 66.14997100830078 22.5)"><text x="66.14997100830078" y="0" font-family="Virgil, Segoe UI Emoji" font-size="36px" fill="#1e1e1e" text-anchor="middle" style="white-space: pre;" direction="ltr" dominant-baseline="text-before-edge">params:</text></g><g transform="translate(422.55288951188606 715.9487640297036) rotate(0 66.9479751586914 17.5)"><text x="66.9479751586914" y="0" font-family="Virgil, Segoe UI Emoji" font-size="28px" fill="#e03131" text-anchor="middle" style="white-space: pre;" direction="ltr" dominant-baseline="text-before-edge">- groupID</text></g><g stroke-linecap="round"><g transform="translate(566.4222147185008 720.7119038938465) rotate(0 64.45970113991459 -16.62543664910868)"><path d="M-0.49 0.91 C21.14 -4.69, 107.77 -28.26, 129.41 -34.16 M1.45 0.35 C23.07 -5.07, 107.8 -27.28, 129.08 -32.95" stroke="#e03131" stroke-width="1" fill="none"></path></g><g transform="translate(566.4222147185008 720.7119038938465) rotate(0 64.45970113991459 -16.62543664910868)"><path d="M105.96 -13.87 C110.05 -18.45, 116.05 -26.8, 128.25 -33.01 M103.73 -15.96 C112.55 -21.09, 119.36 -25.44, 128.09 -32.38" stroke="#e03131" stroke-width="1" fill="none"></path></g><g transform="translate(566.4222147185008 720.7119038938465) rotate(0 64.45970113991459 -16.62543664910868)"><path d="M100.73 -33.71 C106.13 -32.99, 113.52 -36.05, 128.25 -33.01 M98.5 -35.8 C108.88 -35.05, 117.25 -33.47, 128.09 -32.38" stroke="#e03131" stroke-width="1" fill="none"></path></g></g><mask></mask><g stroke-linecap="round"><g transform="translate(570.311959580889 749.9647117500833) rotate(0 69.20119561892872 0.13209150826673977)"><path d="M0.53 -0.87 C23.64 -0.92, 115.89 0.47, 139.05 0.79 M-0.65 1.29 C22.23 1.39, 114.63 -0.68, 137.86 -1.03" stroke="#e03131" stroke-width="1" fill="none"></path></g><g transform="translate(570.311959580889 749.9647117500833) rotate(0 69.20119561892872 0.13209150826673977)"><path d="M108.43 8.98 C119.98 6.04, 129.72 1.37, 137.26 -2.95 M109.85 9.86 C116.98 7.23, 122.64 4.53, 137.83 -0.38" stroke="#e03131" stroke-width="1" fill="none"></path></g><g transform="translate(570.311959580889 749.9647117500833) rotate(0 69.20119561892872 0.13209150826673977)"><path d="M108.04 -11.54 C119.92 -7.69, 129.78 -5.56, 137.26 -2.95 M109.46 -10.66 C116.8 -8.75, 122.54 -6.91, 137.83 -0.38" stroke="#e03131" stroke-width="1" fill="none"></path></g></g><mask></mask><g transform="translate(705.8626481365005 661.763249805025) rotate(0 65.15596771240234 17.5)"><text x="65.15596771240234" y="0" font-family="Virgil, Segoe UI Emoji" font-size="28px" fill="#e03131" text-anchor="middle" style="white-space: pre;" direction="ltr" dominant-baseline="text-before-edge">0 - phone</text></g><g transform="translate(725.6494604183605 735.4639551049468) rotate(0 44.43598937988281 17.5)"><text x="44.43598937988281" y="0" font-family="Virgil, Segoe UI Emoji" font-size="28px" fill="#e03131" text-anchor="middle" style="white-space: pre;" direction="ltr" dominant-baseline="text-before-edge">1 - orb</text></g><g transform="translate(1265.482397383896 444.80214302668577) rotate(0 99.78124237060547 13.383740044294711)"><text x="99.78124237060547" y="0" font-family="Virgil, Segoe UI Emoji" font-size="21.413984070871546px" fill="#f08c00" text-anchor="middle" style="white-space: pre;" direction="ltr" dominant-baseline="text-before-edge">registerIdentities()</text></g><g stroke-linecap="round"><g transform="translate(1914.1998923152664 492.82684082698455) rotate(0 102.15285761651444 -1.3313868442062358)"><path d="M0.62 -0.25 C34.83 -0.81, 170.93 -2.23, 204.82 -2.41 M-0.51 -1.43 C33.57 -1.96, 169.35 -1.66, 203.82 -1.42" stroke="#1e1e1e" stroke-width="1" fill="none"></path></g><g transform="translate(1914.1998923152664 492.82684082698455) rotate(0 102.15285761651444 -1.3313868442062358)"><path d="M175.16 8.57 C181.23 4.24, 190.51 3.5, 203.7 -1.91 M176.41 8.93 C183.67 6.39, 191.78 3.54, 203.77 -0.69" stroke="#1e1e1e" stroke-width="1" fill="none"></path></g><g transform="translate(1914.1998923152664 492.82684082698455) rotate(0 102.15285761651444 -1.3313868442062358)"><path d="M175.25 -11.95 C181.46 -10.86, 190.72 -6.18, 203.7 -1.91 M176.49 -11.59 C183.83 -8.12, 191.91 -4.94, 203.77 -0.69" stroke="#1e1e1e" stroke-width="1" fill="none"></path></g></g><mask></mask><g stroke-linecap="round" transform="translate(2123.805567800345 425.80933166050653) rotate(0 192 46.99999999999997)"><path d="M23.5 0 M23.5 0 C106.4 -0.11, 191.03 -1.49, 360.5 0 M23.5 0 C141.93 -2.28, 259.78 -2.68, 360.5 0 M360.5 0 C377.01 -0.14, 384.71 7.99, 384 23.5 M360.5 0 C377.33 2.13, 382.31 7.69, 384 23.5 M384 23.5 C382.51 37.39, 382.83 49.32, 384 70.5 M384 23.5 C384.03 39.12, 383.85 53.94, 384 70.5 M384 70.5 C384.56 84.84, 377.76 94.64, 360.5 94 M384 70.5 C383.85 87.44, 376.88 91.72, 360.5 94 M360.5 94 C266.84 95.88, 174.12 95.99, 23.5 94 M360.5 94 C242.19 92.95, 124.29 92.95, 23.5 94 M23.5 94 C8.22 92.17, -1.85 85.71, 0 70.5 M23.5 94 C5.66 92.7, 1.12 83.98, 0 70.5 M0 70.5 C1 58.23, -0.32 49.49, 0 23.5 M0 70.5 C0.43 60.23, -0.04 49, 0 23.5 M0 23.5 C-0.93 7.21, 7.67 -1.3, 23.5 0 M0 23.5 C1.05 8.68, 9.53 0.56, 23.5 0" stroke="#1e1e1e" stroke-width="1" fill="none"></path></g><g transform="translate(2149.5136671655796 455.30933166050653) rotate(0 166.29190063476562 17.5)"><text x="166.29190063476562" y="0" font-family="Virgil, Segoe UI Emoji" font-size="28px" fill="#1e1e1e" text-anchor="middle" style="white-space: pre;" direction="ltr" dominant-baseline="text-before-edge">WorldIDIdentityManager</text></g><g transform="translate(2142.7016035058414 353.682818486996) rotate(0 54.06995391845703 25)"><text x="54.06995391845703" y="0" font-family="Virgil, Segoe UI Emoji" font-size="20px" fill="#1e1e1e" text-anchor="middle" style="white-space: pre;" direction="ltr" dominant-baseline="text-before-edge">(0 - phone)</text><text x="54.06995391845703" y="25" font-family="Virgil, Segoe UI Emoji" font-size="20px" fill="#1e1e1e" text-anchor="middle" style="white-space: pre;" direction="ltr" dominant-baseline="text-before-edge">(1 - orb)</text></g><g transform="translate(1920.9974930310423 450.0810416737306) rotate(0 93.20989227294922 12.5)"><text x="93.20989227294922" y="0" font-family="Virgil, Segoe UI Emoji" font-size="20px" fill="#1e1e1e" text-anchor="middle" style="white-space: pre;" direction="ltr" dominant-baseline="text-before-edge">registerIdentities()</text></g><g stroke-linecap="round"><g transform="translate(2303.725712905065 529.8884405411828) rotate(0 1.2458092604482545 87.38847375288805)"><path d="M-0.94 -0.44 C-0.66 28.83, 0.76 146.97, 1.12 176.5 M0.77 -1.72 C1.47 27.16, 3.54 145.41, 3.42 174.87" stroke="#1e1e1e" stroke-width="1" fill="none"></path></g><g transform="translate(2303.725712905065 529.8884405411828) rotate(0 1.2458092604482545 87.38847375288805)"><path d="M-7.82 145.47 C-2.63 152.95, 0.49 162.79, 2.26 175.12 M-6.22 146.14 C-4.72 153.57, -0.98 162.36, 3.72 175.49" stroke="#1e1e1e" stroke-width="1" fill="none"></path></g><g transform="translate(2303.725712905065 529.8884405411828) rotate(0 1.2458092604482545 87.38847375288805)"><path d="M12.7 145.3 C12.62 152.66, 10.46 162.54, 2.26 175.12 M14.3 145.97 C10.11 153.56, 8.16 162.4, 3.72 175.49" stroke="#1e1e1e" stroke-width="1" fill="none"></path></g></g><mask></mask><g stroke-linecap="round" transform="translate(2093.3583127055726 720.796853277272) rotate(0 206.1483164355227 47.65114780780584)"><path d="M23.83 0 M23.83 0 C153.94 -1.85, 282.28 -2.44, 388.47 0 M23.83 0 C113.75 0.06, 203.28 0.39, 388.47 0 M388.47 0 C404.56 -1.06, 412 8.94, 412.3 23.83 M388.47 0 C406.36 2.11, 411.32 8.69, 412.3 23.83 M412.3 23.83 C413.83 41.76, 413.68 61.06, 412.3 71.48 M412.3 23.83 C411.06 41.82, 412.94 60.37, 412.3 71.48 M412.3 71.48 C413.81 85.94, 405.97 97.13, 388.47 95.3 M412.3 71.48 C413.07 89.41, 403.44 94.35, 388.47 95.3 M388.47 95.3 C271.89 92.71, 158.19 93.5, 23.83 95.3 M388.47 95.3 C287.82 97.39, 187.01 97.76, 23.83 95.3 M23.83 95.3 C6.19 96.48, -1.32 87.68, 0 71.48 M23.83 95.3 C9.93 95.99, 0.12 87.14, 0 71.48 M0 71.48 C0.02 59.44, 0.67 48.92, 0 23.83 M0 71.48 C0.9 60.65, -0.14 49.87, 0 23.83 M0 23.83 C-0.03 8.27, 7.5 -1.76, 23.83 0 M0 23.83 C-2.13 6.49, 9.27 0.18, 23.83 0" stroke="#1e1e1e" stroke-width="1" fill="none"></path></g><g transform="translate(2216.276671560529 750.9480010850779) rotate(0 83.2299575805664 17.5)"><text x="83.2299575805664" y="0" font-family="Virgil, Segoe UI Emoji" font-size="28px" fill="#1e1e1e" text-anchor="middle" style="white-space: pre;" direction="ltr" dominant-baseline="text-before-edge">StateBridge</text></g></svg>