<svg version="1.1" xmlns="http://www.w3.org/2000/svg" viewBox="0 0 2637.970244919455 383.15131494302204" width="5275.94048983891" height="766.3026298860441">
  <!-- svg-source:excalidraw -->
  
  <defs>
    <style class="style-fonts">
      @font-face {
        font-family: "Virgil";
        src: url("https://excalidraw.com/Virgil.woff2");
      }
      @font-face {
        font-family: "Cascadia";
        src: url("https://excalidraw.com/Cascadia.woff2");
      }
    </style>
    
  </defs>
  <rect x="0" y="0" width="2637.970244919455" height="383.15131494302204" fill="#ffffff"></rect><g transform="translate(823.1389937833336 10) rotate(0 341.2952880859375 33.60033569563598)"><text x="341.2952880859375" y="0" font-family="Virgil, Segoe UI Emoji" font-size="53.760537113017506px" fill="#343a40" text-anchor="middle" style="white-space: pre;" direction="ltr" dominant-baseline="text-before-edge">World ID verification flow</text></g><g stroke-linecap="round"><g transform="translate(850.2474539493127 76.63558373741125) rotate(0 306.3660099691432 0)"><path d="M0 0 C102.12 0, 510.61 0, 612.73 0 M0 0 C102.12 0, 510.61 0, 612.73 0" stroke="#343a40" stroke-width="4" fill="none"></path></g></g><mask></mask><g transform="translate(902.9481209237322 88.52364125266558) rotate(0 54.19397735595703 17.5)"><text x="54.19397735595703" y="0" font-family="Virgil, Segoe UI Emoji" font-size="28px" fill="#1e1e1e" text-anchor="middle" style="white-space: pre;" direction="ltr" dominant-baseline="text-before-edge">groupID</text></g><g stroke-linecap="round" transform="translate(1105.4215841181538 201.6696959050978) rotate(0 212.7374453223016 57.25679020718189)"><path d="M28.63 0 M28.63 0 C120.34 -0.72, 213.27 -0.33, 396.85 0 M28.63 0 C153.86 -0.87, 279.98 -0.97, 396.85 0 M396.85 0 C417.44 -1.42, 426.5 8.84, 425.47 28.63 M396.85 0 C418.1 -0.15, 426.89 9.72, 425.47 28.63 M425.47 28.63 C424.42 47.14, 425.43 63.05, 425.47 85.89 M425.47 28.63 C426.05 46.77, 426.3 64.06, 425.47 85.89 M425.47 85.89 C423.94 106.76, 416.22 115.13, 396.85 114.51 M425.47 85.89 C426.77 106.87, 415.21 114.66, 396.85 114.51 M396.85 114.51 C254.51 115.69, 113.76 116.58, 28.63 114.51 M396.85 114.51 C298 115.44, 197.63 115.51, 28.63 114.51 M28.63 114.51 C10.29 113.05, -0.91 104.35, 0 85.89 M28.63 114.51 C8.35 116.26, 1.63 106.2, 0 85.89 M0 85.89 C1.13 75.6, 1.89 61.22, 0 28.63 M0 85.89 C-0.36 72.25, 0.89 58.54, 0 28.63 M0 28.63 C-0.44 9.92, 8.37 -1.17, 28.63 0 M0 28.63 C0.88 11.3, 10.19 1.24, 28.63 0" stroke="#000000" stroke-width="1" fill="none"></path></g><g transform="translate(1188.037081198268 236.4264861122797) rotate(0 130.1219482421875 22.5)"><text x="130.1219482421875" y="0" font-family="Virgil, Segoe UI Emoji" font-size="36px" fill="#000000" text-anchor="middle" style="white-space: pre;" direction="ltr" dominant-baseline="text-before-edge">WorldIDRouter</text></g><g transform="translate(1115.8259279428294 142.07493895448624) rotate(0 76.41197204589844 17.5)"><text x="76.41197204589844" y="0" font-family="Virgil, Segoe UI Emoji" font-size="28px" fill="#1e1e1e" text-anchor="middle" style="white-space: pre;" direction="ltr" dominant-baseline="text-before-edge">Ethereum /</text></g><g transform="translate(1283.2355973843307 138.41483598755303) rotate(0 56.43396759033203 17.5)"><text x="56.43396759033203" y="0" font-family="Virgil, Segoe UI Emoji" font-size="28px" fill="#e03131" text-anchor="middle" style="white-space: pre;" direction="ltr" dominant-baseline="text-before-edge">Optimism</text></g><g transform="translate(1406.5594858918114 136.9711758845856) rotate(0 7 17.5)"><text x="7" y="0" font-family="Virgil, Segoe UI Emoji" font-size="28px" fill="#1e1e1e" text-anchor="middle" style="white-space: pre;" direction="ltr" dominant-baseline="text-before-edge">/</text></g><g transform="translate(1431.164092313307 133.9564739048601) rotate(0 48.56597900390625 17.5)"><text x="48.56597900390625" y="0" font-family="Virgil, Segoe UI Emoji" font-size="28px" fill="#1971c2" text-anchor="middle" style="white-space: pre;" direction="ltr" dominant-baseline="text-before-edge">Polygon</text></g><g stroke-linecap="round" transform="translate(569.5363448695732 183.15131494302204) rotate(0 133.22435114908978 95)"><path d="M32 0 M32 0 C89.85 1.27, 142.74 0.5, 234.45 0 M32 0 C104.98 -0.85, 179.1 -1.91, 234.45 0 M234.45 0 C256.98 -0.64, 265.85 9.61, 266.45 32 M234.45 0 C258.06 1.47, 268.16 9.47, 266.45 32 M266.45 32 C265.84 73.55, 265.63 115.92, 266.45 158 M266.45 32 C267.41 56.56, 266.25 82.71, 266.45 158 M266.45 158 C264.52 181.08, 257.29 191.36, 234.45 190 M266.45 158 C265.34 180.2, 254.12 188.64, 234.45 190 M234.45 190 C168.82 187.12, 104.7 188.65, 32 190 M234.45 190 C189.49 191.51, 144.42 191.17, 32 190 M32 190 C10.67 191.85, -1.02 177.55, 0 158 M32 190 C9.87 188.19, -0.45 178.4, 0 158 M0 158 C-0.16 126.59, 0.95 91.37, 0 32 M0 158 C0.36 122.33, 1.06 87.07, 0 32 M0 32 C-0.87 11.92, 10.38 -1.79, 32 0 M0 32 C-2.03 9.79, 12.39 0.55, 32 0" stroke="#1e1e1e" stroke-width="1" fill="none"></path></g><g transform="translate(610.0967327007919 188.15131494302204) rotate(0 92.6639633178711 90)"><text x="92.6639633178711" y="0" font-family="Virgil, Segoe UI Emoji" font-size="36px" fill="#1e1e1e" text-anchor="middle" style="white-space: pre;" direction="ltr" dominant-baseline="text-before-edge">Smart </text><text x="92.6639633178711" y="45" font-family="Virgil, Segoe UI Emoji" font-size="36px" fill="#1e1e1e" text-anchor="middle" style="white-space: pre;" direction="ltr" dominant-baseline="text-before-edge">contract </text><text x="92.6639633178711" y="90" font-family="Virgil, Segoe UI Emoji" font-size="36px" fill="#1e1e1e" text-anchor="middle" style="white-space: pre;" direction="ltr" dominant-baseline="text-before-edge">integrating</text><text x="92.6639633178711" y="135" font-family="Virgil, Segoe UI Emoji" font-size="36px" fill="#1e1e1e" text-anchor="middle" style="white-space: pre;" direction="ltr" dominant-baseline="text-before-edge">World ID</text></g><g stroke-linecap="round"><g transform="translate(845.0716136981916 267.9146232312164) rotate(0 126.82013885544836 -0.6976011401401365)"><path d="M-0.8 0.04 C41.68 0.25, 212.05 0.13, 254.44 0.29 M0.99 -0.99 C43.41 -1.07, 211.96 -1.71, 253.91 -1.68" stroke="#1e1e1e" stroke-width="1" fill="none"></path></g><g transform="translate(845.0716136981916 267.9146232312164) rotate(0 126.82013885544836 -0.6976011401401365)"><path d="M225.81 9.98 C233.84 5.92, 242.58 3.38, 255.04 -1.45 M225.06 9.17 C234.49 5.48, 242.45 3.83, 254.15 -0.82" stroke="#1e1e1e" stroke-width="1" fill="none"></path></g><g transform="translate(845.0716136981916 267.9146232312164) rotate(0 126.82013885544836 -0.6976011401401365)"><path d="M225.77 -10.54 C233.64 -9.12, 242.39 -6.17, 255.04 -1.45 M225.02 -11.35 C234.45 -9.23, 242.41 -5.06, 254.15 -0.82" stroke="#1e1e1e" stroke-width="1" fill="none"></path></g></g><mask></mask><g transform="translate(871.0051789690599 209.2306100972064) rotate(0 85.56794738769531 17.5)"><text x="85.56794738769531" y="0" font-family="Virgil, Segoe UI Emoji" font-size="28px" fill="#1e1e1e" text-anchor="middle" style="white-space: pre;" direction="ltr" dominant-baseline="text-before-edge">verifyProof()</text></g><g transform="translate(891.998422159651 129.4065412430175) rotate(0 67.28368991973082 31.109555790079526)"><text x="67.28368991973082" y="0" font-family="Virgil, Segoe UI Emoji" font-size="24.887644632063658px" fill="#1e1e1e" text-anchor="middle" style="white-space: pre;" direction="ltr" dominant-baseline="text-before-edge">(0 - phone)</text><text x="67.28368991973082" y="31.109555790079572" font-family="Virgil, Segoe UI Emoji" font-size="24.887644632063658px" fill="#1e1e1e" text-anchor="middle" style="white-space: pre;" direction="ltr" dominant-baseline="text-before-edge">(1 - orb)</text></g><g stroke-linecap="round"><g transform="translate(1536.160230824692 260.24434082210155) rotate(0 92.60214647589913 -1.1145515295312407)"><path d="M-0.41 -0.41 C30.33 -0.9, 154.64 -1.57, 185.61 -1.82 M1.58 -1.67 C32.14 -1.49, 154.62 -0.63, 185.21 -0.51" stroke="#1e1e1e" stroke-width="1" fill="none"></path></g><g transform="translate(1536.160230824692 260.24434082210155) rotate(0 92.60214647589913 -1.1145515295312407)"><path d="M156.28 11.32 C167.45 7.08, 178.55 2.33, 186.9 0.41 M157.06 10.52 C168.56 5.79, 178.8 1.72, 185.63 -0.93" stroke="#1e1e1e" stroke-width="1" fill="none"></path></g><g transform="translate(1536.160230824692 260.24434082210155) rotate(0 92.60214647589913 -1.1145515295312407)"><path d="M156.4 -9.2 C167.72 -5.24, 178.77 -1.79, 186.9 0.41 M157.18 -10 C168.77 -6.82, 178.96 -2.98, 185.63 -0.93" stroke="#1e1e1e" stroke-width="1" fill="none"></path></g></g><mask></mask><g stroke-linecap="round" transform="translate(1732.8461825840714 199.2477535609296) rotate(0 223 50)"><path d="M25 0 M25 0 C129.89 -1.14, 235.08 -1.55, 421 0 M25 0 C177.73 -1.47, 329.75 -1.41, 421 0 M421 0 C439.23 0.64, 446.25 8.63, 446 25 M421 0 C438.63 -0.97, 444.31 10.3, 446 25 M446 25 C446.42 33.47, 445.05 44.2, 446 75 M446 25 C445.96 40.42, 445.87 56.25, 446 75 M446 75 C444.31 93.66, 437.25 100.34, 421 100 M446 75 C446.72 91.26, 437.4 99.84, 421 100 M421 100 C278.18 98.69, 133.33 97.03, 25 100 M421 100 C288.15 101.53, 155.78 102.24, 25 100 M25 100 C7.74 101.56, -1.28 90.16, 0 75 M25 100 C9.62 100.24, 1.71 91.3, 0 75 M0 75 C1.89 60.89, 0.53 52.15, 0 25 M0 75 C-0.1 63.33, -0.25 50.1, 0 25 M0 25 C-0.05 6.4, 10.14 0.26, 25 0 M0 25 C1.54 8.68, 9.98 -0.25, 25 0" stroke="#1e1e1e" stroke-width="1" fill="none"></path></g><g transform="translate(1742.0422885411026 226.7477535609296) rotate(0 213.80389404296875 22.5)"><text x="213.80389404296875" y="0" font-family="Virgil, Segoe UI Emoji" font-size="36px" fill="#1e1e1e" text-anchor="middle" style="white-space: pre;" direction="ltr" dominant-baseline="text-before-edge">WorldIDIdentityManager</text></g><g transform="translate(1542.2306977844091 195.53507907443736) rotate(0 85.56794738769531 17.5)"><text x="85.56794738769531" y="0" font-family="Virgil, Segoe UI Emoji" font-size="28px" fill="#1e1e1e" text-anchor="middle" style="white-space: pre;" direction="ltr" dominant-baseline="text-before-edge">verifyProof()</text></g><g stroke-linecap="round"><g transform="translate(2186.680976258564 236.46731986825353) rotate(0 59.72691639562822 -34.9610104503314)"><path d="M-0.16 -0.48 C19.54 -11.98, 99.05 -57.97, 118.9 -69.44 M-1.7 -1.78 C18.31 -13.06, 100.63 -57.01, 121.16 -68.05" stroke="#1e1e1e" stroke-width="1" fill="none"></path></g><g transform="translate(2186.680976258564 236.46731986825353) rotate(0 59.72691639562822 -34.9610104503314)"><path d="M100.35 -47.15 C107.98 -55.06, 115.44 -60.51, 120.24 -68.35 M101.53 -46.61 C107.83 -53.88, 115.48 -61.35, 121.81 -68.41" stroke="#1e1e1e" stroke-width="1" fill="none"></path></g><g transform="translate(2186.680976258564 236.46731986825353) rotate(0 59.72691639562822 -34.9610104503314)"><path d="M90.66 -65.23 C101.71 -66.61, 112.66 -65.55, 120.24 -68.35 M91.83 -64.7 C101.71 -65.61, 112.79 -66.67, 121.81 -68.41" stroke="#1e1e1e" stroke-width="1" fill="none"></path></g></g><mask></mask><g transform="translate(2163.351802431634 116.61556843275093) rotate(0 73.6119613647461 17.5)"><text x="73.6119613647461" y="0" font-family="Virgil, Segoe UI Emoji" font-size="28px" fill="#1e1e1e" text-anchor="middle" style="white-space: pre;" direction="ltr" dominant-baseline="text-before-edge">proof valid</text></g><g transform="translate(2143.5063191713607 309.7285932191221) rotate(0 83.21595001220703 17.5)"><text x="83.21595001220703" y="0" font-family="Virgil, Segoe UI Emoji" font-size="28px" fill="#1e1e1e" text-anchor="middle" style="white-space: pre;" direction="ltr" dominant-baseline="text-before-edge">proof invalid</text></g><g transform="translate(2335.3875168965046 274.12737778469636) rotate(0 143.26193237304688 17.5)"><text x="143.26193237304688" y="0" font-family="Virgil, Segoe UI Emoji" font-size="28px" fill="#1e1e1e" text-anchor="middle" style="white-space: pre;" direction="ltr" dominant-baseline="text-before-edge">revert InvalidProof()</text></g><g transform="translate(2321.006377731955 143.6459808312443) rotate(0 153.48193359375 17.5)"><text x="153.48193359375" y="0" font-family="Virgil, Segoe UI Emoji" font-size="28px" fill="#1e1e1e" text-anchor="middle" style="white-space: pre;" direction="ltr" dominant-baseline="text-before-edge">verification successful</text></g><g stroke-linecap="round" transform="translate(10 191.55601745350396) rotate(0 146 84)"><path d="M32 0 M32 0 C88.37 1.44, 147.52 1.78, 260 0 M32 0 C102.26 1.86, 172.98 0.89, 260 0 M260 0 C279.57 1.94, 292.32 9.56, 292 32 M260 0 C282.38 0.72, 293.72 10.76, 292 32 M292 32 C293.22 72.44, 291.94 108.46, 292 136 M292 32 C291.41 57.91, 291.67 81.62, 292 136 M292 136 C291.46 158.29, 280.02 166.41, 260 168 M292 136 C291.43 158.11, 281.46 166.69, 260 168 M260 168 C177.7 167.26, 92.34 166.67, 32 168 M260 168 C181.3 166.79, 100.72 166.3, 32 168 M32 168 C12.16 169.17, 1.2 158.05, 0 136 M32 168 C12.27 165.96, -1.64 155.53, 0 136 M0 136 C0.08 111.42, -0.51 87.04, 0 32 M0 136 C-0.29 96.29, -0.23 56.25, 0 32 M0 32 C1.22 12.63, 9.42 0.8, 32 0 M0 32 C-1.5 10.34, 9.97 -1.72, 32 0" stroke="#1e1e1e" stroke-width="1" fill="none"></path></g><g transform="translate(24.811843872070312 223.42829836580722) rotate(0 131.1881561279297 52.127719087696846)"><text x="131.1881561279297" y="0" font-family="Virgil, Segoe UI Emoji" font-size="41.70217527015744px" fill="#1e1e1e" text-anchor="middle" style="white-space: pre;" direction="ltr" dominant-baseline="text-before-edge">IDKit.js /</text><text x="131.1881561279297" y="52.1277190876968" font-family="Virgil, Segoe UI Emoji" font-size="41.70217527015744px" fill="#1e1e1e" text-anchor="middle" style="white-space: pre;" direction="ltr" dominant-baseline="text-before-edge">semaphore-rs</text></g><g transform="translate(100.36866319067713 140.25223103817052) rotate(0 48.09339219703293 22.224315053640794)"><text x="48.093392197032934" y="0" font-family="Virgil, Segoe UI Emoji" font-size="35.55890408582519px" fill="#1e1e1e" text-anchor="middle" style="white-space: pre;" direction="ltr" dominant-baseline="text-before-edge">Client</text></g><g stroke-linecap="round"><g transform="translate(306.44202928122866 270.5639364704948) rotate(0 129.21367173034884 -0.872964876940955)"><path d="M-0.83 0.94 C42.55 0.55, 216.01 -2.27, 259.26 -2.68 M0.93 0.39 C44.21 0.12, 214.78 -1.66, 258.13 -1.77" stroke="#1e1e1e" stroke-width="1" fill="none"></path></g><g transform="translate(306.44202928122866 270.5639364704948) rotate(0 129.21367173034884 -0.872964876940955)"><path d="M231.57 8.11 C234.11 5.06, 242.06 4.87, 258.09 -2.05 M229.45 9.41 C237.2 5.77, 243.64 2.66, 257.84 -1.56" stroke="#1e1e1e" stroke-width="1" fill="none"></path></g><g transform="translate(306.44202928122866 270.5639364704948) rotate(0 129.21367173034884 -0.872964876940955)"><path d="M231.43 -12.41 C233.94 -11.06, 241.93 -6.84, 258.09 -2.05 M229.31 -11.11 C237.05 -9.47, 243.52 -7.31, 257.84 -1.56" stroke="#1e1e1e" stroke-width="1" fill="none"></path></g></g><mask></mask><g transform="translate(316.6148843111939 218.72444438688876) rotate(0 113.51294102629993 18.119172765461258)"><text x="113.51294102629993" y="0" font-family="Virgil, Segoe UI Emoji" font-size="28.990676424738066px" fill="#1e1e1e" text-anchor="middle" style="white-space: pre;" direction="ltr" dominant-baseline="text-before-edge">generates proof</text></g><g stroke-linecap="round"><g transform="translate(2186.1714491633993 240.91042120149723) rotate(0 63.94246680080278 23.37709178506941)"><path d="M0.86 -0.46 C21.71 7.59, 104.91 40.6, 125.91 48.51 M-0.15 -1.75 C20.98 5.95, 107.02 38.54, 128.04 46.82" stroke="#1e1e1e" stroke-width="1" fill="none"></path></g><g transform="translate(2186.1714491633993 240.91042120149723) rotate(0 63.94246680080278 23.37709178506941)"><path d="M97.27 44.43 C110.39 45.96, 118.78 48.01, 126.98 47.42 M97.53 46.77 C107.18 45.89, 115.67 47.23, 128.09 46.68" stroke="#1e1e1e" stroke-width="1" fill="none"></path></g><g transform="translate(2186.1714491633993 240.91042120149723) rotate(0 63.94246680080278 23.37709178506941)"><path d="M104.64 25.28 C115.09 33.86, 120.79 42.92, 126.98 47.42 M104.9 27.62 C112.4 32.18, 118.83 38.89, 128.09 46.68" stroke="#1e1e1e" stroke-width="1" fill="none"></path></g></g><mask></mask></svg>