<svg version="1.1" xmlns="http://www.w3.org/2000/svg" viewBox="0 0 3053.756104556135 768.3287181217718" width="6107.51220911227" height="1536.6574362435435">
  <!-- svg-source:excalidraw -->
  
  <defs>
    <style class="style-fonts">
      @font-face {
        font-family: "Virgil";
        src: url("https://excalidraw.com/Virgil.woff2");
      }
      @font-face {
        font-family: "Cascadia";
        src: url("https://excalidraw.com/Cascadia.woff2");
      }
    </style>
    
  </defs>
  <rect x="0" y="0" width="3053.756104556135" height="768.3287181217718" fill="#ffffff"></rect><g stroke-linecap="round" transform="translate(745.7700694550389 440.32628139540935) rotate(0 248.314453125 55.17773437500003)"><path d="M27.59 0 M27.59 0 C192.46 0.01, 357.58 -0.26, 469.04 0 M27.59 0 C194.1 0.45, 360.25 0.02, 469.04 0 M469.04 0 C488.63 -0.16, 497.01 9.02, 496.63 27.59 M469.04 0 C488.7 1.91, 498.4 11.3, 496.63 27.59 M496.63 27.59 C496.08 42.69, 497.96 55.94, 496.63 82.77 M496.63 27.59 C497.07 46, 497.29 63.29, 496.63 82.77 M496.63 82.77 C494.75 102.98, 486.86 110.73, 469.04 110.36 M496.63 82.77 C497.63 102.39, 486.42 111.97, 469.04 110.36 M469.04 110.36 C352.25 113.07, 237.31 111.76, 27.59 110.36 M469.04 110.36 C350.87 111.42, 232.3 110.82, 27.59 110.36 M27.59 110.36 C8.43 110.05, 0.15 100.78, 0 82.77 M27.59 110.36 C11.46 108.42, -1.34 100.37, 0 82.77 M0 82.77 C0.97 71.14, 1.96 58.91, 0 27.59 M0 82.77 C0.05 65.44, 1.21 49.55, 0 27.59 M0 27.59 C-1.43 9.39, 10.51 -0.92, 27.59 0 M0 27.59 C1.02 10.01, 9.06 -0.43, 27.59 0" stroke="#000000" stroke-width="1" fill="none"></path></g><g transform="translate(851.9026072968358 473.00401577040935) rotate(0 142.18191528320312 22.50000000000003)"><text x="142.18191528320312" y="0" font-family="Virgil, Segoe UI Emoji" font-size="36px" fill="#000000" text-anchor="middle" style="white-space: pre;" direction="ltr" dominant-baseline="text-before-edge">signup-sequencer</text></g><g stroke-linecap="round" transform="translate(1521.23027989815 441.1913670162423) rotate(0 212.7374453223016 57.256790207181865)"><path d="M28.63 0 M28.63 0 C106.21 1.88, 185.57 0.1, 396.85 0 M28.63 0 C142.92 1.27, 256.63 0.93, 396.85 0 M396.85 0 C415.27 -1.51, 427.14 10.59, 425.47 28.63 M396.85 0 C417.9 1.31, 427.43 9.21, 425.47 28.63 M425.47 28.63 C427.43 42.69, 424.95 54.21, 425.47 85.89 M425.47 28.63 C424.85 51.04, 426.04 72.85, 425.47 85.89 M425.47 85.89 C425.7 103.19, 415.38 113.05, 396.85 114.51 M425.47 85.89 C425.85 105.92, 416.6 112.28, 396.85 114.51 M396.85 114.51 C263.23 112.1, 128.44 112.05, 28.63 114.51 M396.85 114.51 C269.04 113.25, 141.29 112.85, 28.63 114.51 M28.63 114.51 C8.23 114.97, -1.93 105.02, 0 85.89 M28.63 114.51 C9.8 113.82, 1.52 105.54, 0 85.89 M0 85.89 C-0.44 63.27, -0.18 40.26, 0 28.63 M0 85.89 C-0.04 67.73, -0.66 48.41, 0 28.63 M0 28.63 C1.34 10.37, 11.43 -1, 28.63 0 M0 28.63 C0.53 8.45, 8.08 1.16, 28.63 0" stroke="#000000" stroke-width="1" fill="none"></path></g><g transform="translate(1532.1698126227952 475.9481572234241) rotate(0 201.79791259765625 22.5)"><text x="201.79791259765625" y="0" font-family="Virgil, Segoe UI Emoji" font-size="36px" fill="#000000" text-anchor="middle" style="white-space: pre;" direction="ltr" dominant-baseline="text-before-edge">WorldIDIdentityManger</text></g><g stroke-linecap="round" transform="translate(745.1189259844169 166.63320084531495) rotate(0 248.21619737875204 53.87406327354114)"><path d="M26.94 0 M26.94 0 C171.47 1.57, 315.18 0.68, 469.5 0 M26.94 0 C120.69 -1.35, 215.11 -1.59, 469.5 0 M469.5 0 C487.86 -1.64, 494.81 7.79, 496.43 26.94 M469.5 0 C489.35 1.47, 495.92 10.26, 496.43 26.94 M496.43 26.94 C495.34 44.79, 495.25 62.04, 496.43 80.81 M496.43 26.94 C496.83 38.04, 497.69 49.71, 496.43 80.81 M496.43 80.81 C495.73 99.48, 488.27 107.37, 469.5 107.75 M496.43 80.81 C497.14 99.29, 485.72 107.28, 469.5 107.75 M469.5 107.75 C366.98 107.95, 262.72 108.62, 26.94 107.75 M469.5 107.75 C317.39 109.59, 165.15 109.47, 26.94 107.75 M26.94 107.75 C9.66 108.83, 1.36 99.9, 0 80.81 M26.94 107.75 C8.36 107.01, 0.3 96.66, 0 80.81 M0 80.81 C1.32 67.49, 0.22 56.96, 0 26.94 M0 80.81 C0.07 69.38, -0.27 57.18, 0 26.94 M0 26.94 C1.98 9.81, 7.13 -0.52, 26.94 0 M0 26.94 C-2.24 8.86, 8.31 -0.56, 26.94 0" stroke="#343a40" stroke-width="1" fill="none"></path></g><g transform="translate(866.8851721912939 198.00726411885609) rotate(0 126.449951171875 22.5)"><text x="126.449951171875" y="0" font-family="Virgil, Segoe UI Emoji" font-size="36px" fill="#343a40" text-anchor="middle" style="white-space: pre;" direction="ltr" dominant-baseline="text-before-edge">semaphore-mtb</text></g><g stroke-linecap="round"><g transform="translate(828.5720894395006 438.61855230847294) rotate(0 -1.014825407675886 -82.25289733630558)"><path d="M-0.95 -0.36 C-1.28 -27.92, -2.68 -136.94, -2.78 -164.14 M0.75 -1.6 C0.84 -28.53, -0.14 -136.3, -0.65 -163.12" stroke="#343a40" stroke-width="1" fill="none"></path></g><g transform="translate(828.5720894395006 438.61855230847294) rotate(0 -1.014825407675886 -82.25289733630558)"><path d="M9.37 -136.9 C5.61 -141.51, 4.03 -147.45, 1.17 -163.79 M10.87 -135.65 C7.27 -144.37, 2.94 -152.96, 0.01 -164.01" stroke="#343a40" stroke-width="1" fill="none"></path></g><g transform="translate(828.5720894395006 438.61855230847294) rotate(0 -1.014825407675886 -82.25289733630558)"><path d="M-11.15 -136.63 C-10.15 -141.14, -6.95 -147.15, 1.17 -163.79 M-9.65 -135.39 C-6.94 -144.37, -4.95 -153.05, 0.01 -164.01" stroke="#343a40" stroke-width="1" fill="none"></path></g></g><mask></mask><g transform="translate(470.5532039557976 306.0028582699119) rotate(0 177.4359130859375 35)"><text x="177.4359130859375" y="0" font-family="Virgil, Segoe UI Emoji" font-size="28px" fill="#343a40" text-anchor="middle" style="white-space: pre;" direction="ltr" dominant-baseline="text-before-edge">identity commitment batch</text><text x="177.4359130859375" y="35" font-family="Virgil, Segoe UI Emoji" font-size="28px" fill="#343a40" text-anchor="middle" style="white-space: pre;" direction="ltr" dominant-baseline="text-before-edge">(size 10, 100 or 1000) </text></g><g stroke-linecap="round"><g transform="translate(1103.6977382930381 274.20228971988666) rotate(0 -0.6048951991300555 80.92062181405339)"><path d="M0.1 -1.17 C0.15 25.71, -0.08 134.36, -0.15 161.65 M-1.31 0.83 C-1.33 27.86, -0.86 136.4, -0.78 163.01" stroke="#343a40" stroke-width="1" fill="none"></path></g><g transform="translate(1103.6977382930381 274.20228971988666) rotate(0 -0.6048951991300555 80.92062181405339)"><path d="M-13.1 135.86 C-8.89 143.01, -4.64 150.49, -1.89 163.05 M-11.14 134.96 C-8.35 141.01, -5.58 148.12, -0.18 162.07" stroke="#343a40" stroke-width="1" fill="none"></path></g><g transform="translate(1103.6977382930381 274.20228971988666) rotate(0 -0.6048951991300555 80.92062181405339)"><path d="M7.42 135.78 C6.24 142.97, 5.09 150.47, -1.89 163.05 M9.38 134.89 C7.48 140.9, 5.55 148.03, -0.18 162.07" stroke="#343a40" stroke-width="1" fill="none"></path></g></g><mask></mask><g transform="translate(840.4380966931355 346.93703519070687) rotate(0 129.5279541015625 22.5)"><text x="129.5279541015625" y="0" font-family="Virgil, Segoe UI Emoji" font-size="36px" fill="#2f9e44" text-anchor="middle" style="white-space: pre;" direction="ltr" dominant-baseline="text-before-edge">/insertionProof</text></g><g transform="translate(1121.3870016528917 308.8738892408758) rotate(0 130.44595336914057 45)"><text x="130.44595336914062" y="0" font-family="Virgil, Segoe UI Emoji" font-size="36px" fill="#343a40" text-anchor="middle" style="white-space: pre;" direction="ltr" dominant-baseline="text-before-edge">batch insertion</text><text x="130.44595336914062" y="45" font-family="Virgil, Segoe UI Emoji" font-size="36px" fill="#343a40" text-anchor="middle" style="white-space: pre;" direction="ltr" dominant-baseline="text-before-edge">proof</text></g><g stroke-linecap="round"><g transform="translate(1248.5312803561428 497.63468540437384) rotate(0 127.8829613804354 0.03912213982090407)"><path d="M-0.86 0.56 C41.86 0.61, 214 -0.29, 256.63 -0.58 M0.89 -0.2 C43.47 0.08, 213.25 0.71, 255.96 0.65" stroke="#343a40" stroke-width="1" fill="none"></path></g><g transform="translate(1248.5312803561428 497.63468540437384) rotate(0 127.8829613804354 0.03912213982090407)"><path d="M228.68 11.77 C236.03 5.77, 244.16 6.27, 256.07 1.35 M228.2 11.35 C238.59 6.66, 249.11 2.58, 255.25 1.53" stroke="#343a40" stroke-width="1" fill="none"></path></g><g transform="translate(1248.5312803561428 497.63468540437384) rotate(0 127.8829613804354 0.03912213982090407)"><path d="M228.72 -8.75 C235.9 -8.09, 244.03 -0.92, 256.07 1.35 M228.23 -9.17 C238.44 -6.01, 248.94 -2.23, 255.25 1.53" stroke="#343a40" stroke-width="1" fill="none"></path></g></g><mask></mask><g transform="translate(1199.047441222985 10) rotate(0 302.39990234374994 33.60033569563594)"><text x="302.39990234375" y="0" font-family="Virgil, Segoe UI Emoji" font-size="53.760537113017506px" fill="#343a40" text-anchor="middle" style="white-space: pre;" direction="ltr" dominant-baseline="text-before-edge">World ID creation flow</text></g><g stroke-linecap="round"><g transform="translate(1194.2605156467766 76.63558373741148) rotate(0 306.36600996914325 0)"><path d="M0 0 C102.12 0, 510.61 0, 612.73 0 M0 0 C102.12 0, 510.61 0, 612.73 0" stroke="#343a40" stroke-width="4" fill="none"></path></g></g><mask></mask><g stroke-linecap="round" transform="translate(10 444.5647731894199) rotate(0 249.85521006408737 53.52683869655144)"><path d="M26.76 0 M26.76 0 C132.47 1.24, 240.36 2.32, 472.95 0 M26.76 0 C123.58 -1.46, 220.22 -1.38, 472.95 0 M472.95 0 C489.85 -1.43, 498.51 9.18, 499.71 26.76 M472.95 0 C489.58 -0.5, 497.54 11.18, 499.71 26.76 M499.71 26.76 C500.56 48.12, 500.23 71.47, 499.71 80.29 M499.71 26.76 C499.9 42.32, 499.23 55.88, 499.71 80.29 M499.71 80.29 C501.41 97.24, 491.82 106.38, 472.95 107.05 M499.71 80.29 C500.21 99.11, 490.26 107.79, 472.95 107.05 M472.95 107.05 C337.35 106.06, 202.99 105.57, 26.76 107.05 M472.95 107.05 C342.78 108.67, 212.58 108.32, 26.76 107.05 M26.76 107.05 C10 108.49, -0.07 98.82, 0 80.29 M26.76 107.05 C7.6 104.89, -0.57 99.46, 0 80.29 M0 80.29 C-1.7 61.31, -2.27 44.52, 0 26.76 M0 80.29 C0.3 67.96, 0.76 53.82, 0 26.76 M0 26.76 C0.3 10.84, 10.3 -1.54, 26.76 0 M0 26.76 C2.15 9.15, 7.16 0.03, 26.76 0" stroke="#343a40" stroke-width="1" fill="none"></path></g><g transform="translate(158.1552436334233 475.59161188597136) rotate(0 101.69996643066406 22.5)"><text x="101.69996643066406" y="0" font-family="Virgil, Segoe UI Emoji" font-size="36px" fill="#343a40" text-anchor="middle" style="white-space: pre;" direction="ltr" dominant-baseline="text-before-edge">orb-backend</text></g><g stroke-linecap="round"><g transform="translate(529.1207815201449 495.3428251996013) rotate(0 106.00821646390541 1.3132371191580319)"><path d="M-0.08 -1.07 C35.61 -0.71, 178.1 1.62, 213.6 2.13 M-1.58 0.99 C34.07 1.55, 177.49 3.3, 213.13 3.69" stroke="#343a40" stroke-width="1" fill="none"></path></g><g transform="translate(529.1207815201449 495.3428251996013) rotate(0 106.00821646390541 1.3132371191580319)"><path d="M183.04 15.15 C192.17 11.46, 199.27 7.27, 212.58 1.74 M184.19 13.53 C191.43 11.62, 199.47 7.9, 213.98 4.26" stroke="#343a40" stroke-width="1" fill="none"></path></g><g transform="translate(529.1207815201449 495.3428251996013) rotate(0 106.00821646390541 1.3132371191580319)"><path d="M183.28 -5.37 C192.35 -3.79, 199.39 -2.7, 212.58 1.74 M184.44 -6.99 C191.59 -3.93, 199.58 -2.67, 213.98 4.26" stroke="#343a40" stroke-width="1" fill="none"></path></g></g><mask></mask><g transform="translate(527.7278452157626 562.2684794048753) rotate(0 105.15164184570312 18.21835475229733)"><text x="105.15164184570312" y="0" font-family="Virgil, Segoe UI Emoji" font-size="29.14936760367575px" fill="#2f9e44" text-anchor="middle" style="white-space: pre;" direction="ltr" dominant-baseline="text-before-edge">/insertIdentity</text></g><g transform="translate(524.2786733507639 412.2535860450857) rotate(0 101.90989685058594 37.5)"><text x="101.90989685058594" y="0" font-family="Virgil, Segoe UI Emoji" font-size="20px" fill="#1e1e1e" text-anchor="middle" style="white-space: pre;" direction="ltr" dominant-baseline="text-before-edge">orb-authenticated</text><text x="101.90989685058594" y="25" font-family="Virgil, Segoe UI Emoji" font-size="20px" fill="#1e1e1e" text-anchor="middle" style="white-space: pre;" direction="ltr" dominant-baseline="text-before-edge"> Semaphore pub key</text><text x="101.90989685058594" y="50" font-family="Virgil, Segoe UI Emoji" font-size="20px" fill="#1e1e1e" text-anchor="middle" style="white-space: pre;" direction="ltr" dominant-baseline="text-before-edge">(identity commitment)</text></g><g transform="translate(271.9121496386763 700.9999568047599) rotate(0 66.14997100830078 22.5)"><text x="66.14997100830078" y="0" font-family="Virgil, Segoe UI Emoji" font-size="36px" fill="#1e1e1e" text-anchor="middle" style="white-space: pre;" direction="ltr" dominant-baseline="text-before-edge">params:</text></g><g transform="translate(422.55288951188606 703.8135270465286) rotate(0 66.9479751586914 17.5)"><text x="66.9479751586914" y="0" font-family="Virgil, Segoe UI Emoji" font-size="28px" fill="#e03131" text-anchor="middle" style="white-space: pre;" direction="ltr" dominant-baseline="text-before-edge">- groupID</text></g><g stroke-linecap="round"><g transform="translate(566.4222147185008 708.5766669106715) rotate(0 64.45970113991459 -16.62543664910868)"><path d="M-0.49 0.91 C21.14 -4.69, 107.77 -28.26, 129.41 -34.16 M1.45 0.35 C23.07 -5.07, 107.8 -27.28, 129.08 -32.95" stroke="#e03131" stroke-width="1" fill="none"></path></g><g transform="translate(566.4222147185008 708.5766669106715) rotate(0 64.45970113991459 -16.62543664910868)"><path d="M105.96 -13.87 C110.05 -18.45, 116.05 -26.8, 128.25 -33.01 M103.73 -15.96 C112.55 -21.09, 119.36 -25.44, 128.09 -32.38" stroke="#e03131" stroke-width="1" fill="none"></path></g><g transform="translate(566.4222147185008 708.5766669106715) rotate(0 64.45970113991459 -16.62543664910868)"><path d="M100.73 -33.71 C106.13 -32.99, 113.52 -36.05, 128.25 -33.01 M98.5 -35.8 C108.88 -35.05, 117.25 -33.47, 128.09 -32.38" stroke="#e03131" stroke-width="1" fill="none"></path></g></g><mask></mask><g stroke-linecap="round"><g transform="translate(570.311959580889 737.8294747669083) rotate(0 69.20119561892872 0.13209150826673977)"><path d="M0.53 -0.87 C23.64 -0.92, 115.89 0.47, 139.05 0.79 M-0.65 1.29 C22.23 1.39, 114.63 -0.68, 137.86 -1.03" stroke="#e03131" stroke-width="1" fill="none"></path></g><g transform="translate(570.311959580889 737.8294747669083) rotate(0 69.20119561892872 0.13209150826673977)"><path d="M108.43 8.98 C119.98 6.04, 129.72 1.37, 137.26 -2.95 M109.85 9.86 C116.98 7.23, 122.64 4.53, 137.83 -0.38" stroke="#e03131" stroke-width="1" fill="none"></path></g><g transform="translate(570.311959580889 737.8294747669083) rotate(0 69.20119561892872 0.13209150826673977)"><path d="M108.04 -11.54 C119.92 -7.69, 129.78 -5.56, 137.26 -2.95 M109.46 -10.66 C116.8 -8.75, 122.54 -6.91, 137.83 -0.38" stroke="#e03131" stroke-width="1" fill="none"></path></g></g><mask></mask><g transform="translate(705.8626481365005 649.62801282185) rotate(0 65.15596771240234 17.5)"><text x="65.15596771240234" y="0" font-family="Virgil, Segoe UI Emoji" font-size="28px" fill="#e03131" text-anchor="middle" style="white-space: pre;" direction="ltr" dominant-baseline="text-before-edge">0 - phone</text></g><g transform="translate(725.6494604183605 723.3287181217718) rotate(0 44.43598937988281 17.5)"><text x="44.43598937988281" y="0" font-family="Virgil, Segoe UI Emoji" font-size="28px" fill="#e03131" text-anchor="middle" style="white-space: pre;" direction="ltr" dominant-baseline="text-before-edge">1 - orb</text></g><g transform="translate(1247.8233825763175 428.47405288682774) rotate(0 130.49392700195312 17.5)"><text x="130.49392700195312" y="0" font-family="Virgil, Segoe UI Emoji" font-size="28px" fill="#f08c00" text-anchor="middle" style="white-space: pre;" direction="ltr" dominant-baseline="text-before-edge">registerIdentities()</text></g><g stroke-linecap="round"><g transform="translate(1957.1139686344818 497.26636215052156) rotate(0 72.01890397471982 -0.8395174927429139)"><path d="M0.62 -0.25 C24.79 -0.61, 120.71 -1.21, 144.55 -1.18 M-0.51 -1.43 C23.52 -1.76, 119.13 -0.64, 143.55 -0.19" stroke="#1e1e1e" stroke-width="1" fill="none"></path></g><g transform="translate(1957.1139686344818 497.26636215052156) rotate(0 72.01890397471982 -0.8395174927429139)"><path d="M114.79 9.51 C120.89 5.26, 130.2 4.59, 143.43 -0.68 M116.04 9.87 C123.33 7.41, 131.47 4.65, 143.5 0.54" stroke="#1e1e1e" stroke-width="1" fill="none"></path></g><g transform="translate(1957.1139686344818 497.26636215052156) rotate(0 72.01890397471982 -0.8395174927429139)"><path d="M115.08 -11.01 C121.27 -9.84, 130.5 -5.09, 143.43 -0.68 M116.33 -10.65 C123.64 -7.09, 131.68 -3.83, 143.5 0.54" stroke="#1e1e1e" stroke-width="1" fill="none"></path></g></g><mask></mask><g transform="translate(1623.1453003202469 335.0936361910184) rotate(0 97.32596588134766 45)"><text x="97.32596588134766" y="0" font-family="Virgil, Segoe UI Emoji" font-size="36px" fill="#1e1e1e" text-anchor="middle" style="white-space: pre;" direction="ltr" dominant-baseline="text-before-edge">(0 - phone)</text><text x="97.32596588134766" y="45" font-family="Virgil, Segoe UI Emoji" font-size="36px" fill="#1e1e1e" text-anchor="middle" style="white-space: pre;" direction="ltr" dominant-baseline="text-before-edge">(1 - orb)</text></g><g transform="translate(2117.116456118635 395.2640637703504) rotate(0 463.31982421875 90)"><text x="463.31982421875" y="0" font-family="Virgil, Segoe UI Emoji" font-size="36px" fill="#1e1e1e" text-anchor="middle" style="white-space: pre;" direction="ltr" dominant-baseline="text-before-edge">_latestRoot is updated,</text><text x="463.31982421875" y="45" font-family="Virgil, Segoe UI Emoji" font-size="36px" fill="#1e1e1e" text-anchor="middle" style="white-space: pre;" direction="ltr" dominant-baseline="text-before-edge">state bridge contracts will propagate it by</text><text x="463.31982421875" y="90" font-family="Virgil, Segoe UI Emoji" font-size="36px" fill="#1e1e1e" text-anchor="middle" style="white-space: pre;" direction="ltr" dominant-baseline="text-before-edge">querying latestRoot() and propagating it periodically</text><text x="463.31982421875" y="135" font-family="Virgil, Segoe UI Emoji" font-size="36px" fill="#1e1e1e" text-anchor="middle" style="white-space: pre;" direction="ltr" dominant-baseline="text-before-edge">to their destination chains using a relayer</text></g></svg>